<svg xmlns="http://www.w3.org/2000/svg" viewBox="0 0 480 560" font-family="Inter, -apple-system, sans-serif"><defs></defs><rect x="0" y="0" width="480" height="560" fill="#f2efe8"/><rect x="60" y="330" width="360" height="90" fill="#cdb98f" stroke="#44526a" stroke-width="2.5"/>
<g stroke="#a98f5f" stroke-width="3"><line x1="130" y1="330" x2="130" y2="420"/><line x1="200" y1="330" x2="200" y2="420"/><line x1="270" y1="330" x2="270" y2="420"/><line x1="340" y1="330" x2="340" y2="420"/></g>
<path d="M60 330 Q95 306 130 330 Q165 304 200 330 Q235 306 270 330 Q305 304 340 330 Q375 306 420 330 L420 330 L60 330 Z" fill="#f0e6c8" stroke="#e6d7ac" stroke-width="2"/>
<rect x="230" y="150" width="18" height="200" fill="#ffffff" stroke="#44526a" stroke-width="2.5"/>
<g stroke="#44526a" stroke-width="2"><line x1="230" y1="180" x2="248" y2="180"/><line x1="230" y1="210" x2="248" y2="210"/><line x1="230" y1="240" x2="248" y2="240"/><line x1="230" y1="270" x2="248" y2="270"/><line x1="230" y1="300" x2="248" y2="300"/></g>
<rect x="222" y="140" width="34" height="16" rx="3" fill="#3ecf8e"/>
<rect x="64" y="130" width="352" height="290" rx="14" fill="none" stroke="#3ecf8e" stroke-width="5" stroke-dasharray="14 10"/><g font-size="17" font-weight="700" fill="#0d1a2e" stroke="#ffffff" stroke-width="4" paint-order="stroke" stroke-linejoin="round"><text x="24" y="34">Stand a tape measure in the insulation</text><text x="150" y="510">Show the depth from the attic floor</text></g></svg>