<svg xmlns="http://www.w3.org/2000/svg" viewBox="0 0 480 560" font-family="Inter, -apple-system, sans-serif"><defs><linearGradient id="wl" x1="0" y1="0" x2="0" y2="1"><stop offset="0" stop-color="#f2efe8"/><stop offset="1" stop-color="#e4dfd2"/></linearGradient></defs><rect x="0" y="0" width="480" height="560" fill="#f2efe8"/>
<path d="M60 210 L240 80 L420 210 Z" fill="#c3ccd8" stroke="#44526a" stroke-width="3"/>
<path d="M96 210 L240 106 L384 210" fill="none" stroke="#6a7788" stroke-width="3"/>
<!-- ceiling joists -->
<rect x="90" y="330" width="300" height="90" fill="#cdb98f" stroke="#44526a" stroke-width="2.5"/>
<g stroke="#a98f5f" stroke-width="3"><line x1="150" y1="330" x2="150" y2="420"/><line x1="210" y1="330" x2="210" y2="420"/><line x1="270" y1="330" x2="270" y2="420"/><line x1="330" y1="330" x2="330" y2="420"/></g>
<!-- blown insulation between joists -->
<path d="M96 330 Q120 300 150 330 Q180 302 210 330 Q240 300 270 330 Q300 304 330 330 Q360 300 384 330 L384 330 L96 330 Z" fill="#efe3c4" stroke="#d8c48f" stroke-width="2"/>
<g fill="#eadfbf"><ellipse cx="130" cy="322" rx="26" ry="12"/><ellipse cx="250" cy="320" rx="30" ry="13"/><ellipse cx="350" cy="322" rx="24" ry="12"/></g>
<!-- depth ruler -->
<rect x="404" y="300" width="10" height="60" fill="#ffffff" stroke="#44526a" stroke-width="2"/>
<g stroke="#44526a" stroke-width="2"><line x1="404" y1="312" x2="414" y2="312"/><line x1="404" y1="324" x2="414" y2="324"/><line x1="404" y1="336" x2="414" y2="336"/><line x1="404" y1="348" x2="414" y2="348"/></g>
<rect x="64" y="250" width="352" height="200" rx="14" fill="none" stroke="#3ecf8e" stroke-width="5" stroke-dasharray="14 10"/><g font-size="17" font-weight="700" fill="#0d1a2e" stroke="#ffffff" stroke-width="4" paint-order="stroke" stroke-linejoin="round"><text x="24" y="34">Photograph the attic floor insulation</text><text x="150" y="510">Measure the depth and note the type</text><text x="150" y="534">(blown, batt, or spray foam)</text></g></svg>