<svg xmlns="http://www.w3.org/2000/svg" viewBox="0 0 480 560" font-family="Inter, -apple-system, sans-serif"><defs><linearGradient id="mt" x1="0" y1="0" x2="1" y2="0"><stop offset="0" stop-color="#aab6c8"/><stop offset="0.25" stop-color="#e8edf4"/><stop offset="0.6" stop-color="#f4f8fd"/><stop offset="1" stop-color="#b3bfd0"/></linearGradient></defs><rect x="0" y="0" width="480" height="560" fill="#eef2f7"/>
<rect x="120" y="120" width="240" height="300" rx="6" fill="url(#mt)" stroke="#44526a" stroke-width="3"/>
<!-- cooktop -->
<rect x="120" y="120" width="240" height="90" rx="6" fill="#dde3ec" stroke="#44526a" stroke-width="3"/>
<g fill="none" stroke="#6a7788" stroke-width="3">
 <circle cx="176" cy="150" r="18"/><circle cx="304" cy="150" r="18"/>
 <circle cx="176" cy="184" r="14"/><circle cx="304" cy="184" r="14"/></g>
<!-- control panel + knobs -->
<rect x="120" y="210" width="240" height="34" fill="#eef1f6" stroke="#6a7788" stroke-width="2"/>
<g fill="#aab6c8" stroke="#6a7788" stroke-width="2"><circle cx="160" cy="227" r="8"/><circle cx="200" cy="227" r="8"/><circle cx="280" cy="227" r="8"/><circle cx="320" cy="227" r="8"/></g>
<!-- oven door -->
<rect x="140" y="256" width="200" height="150" rx="5" fill="#eef1f6" stroke="#6a7788" stroke-width="2.5"/>
<rect x="160" y="276" width="160" height="70" rx="3" fill="#0d1a2e" opacity="0.28"/>
<rect x="150" y="262" width="180" height="10" rx="5" fill="#aab6c8" stroke="#6a7788" stroke-width="1.5"/>
<rect x="104" y="104" width="272" height="332" rx="14" fill="none" stroke="#3ecf8e" stroke-width="5" stroke-dasharray="14 10"/><g font-size="17" font-weight="700" fill="#0d1a2e" stroke="#ffffff" stroke-width="4" paint-order="stroke" stroke-linejoin="round"><text x="56" y="36">The range / stove</text><text x="150" y="522">Show the burners and controls</text></g></svg>